<?xml version="1.0" encoding="UTF-8"?>
<svg xmlns="http://www.w3.org/2000/svg" xmlns:xlink="http://www.w3.org/1999/xlink" viewBox="0 0 945.91 914.51">
  <defs>
    <style>
      .cls-1 {
        fill: url(#linear-gradient-2);
      }

      .cls-1, .cls-2, .cls-3, .cls-4, .cls-5, .cls-6, .cls-7, .cls-8, .cls-9, .cls-10, .cls-11, .cls-12, .cls-13, .cls-14, .cls-15, .cls-16, .cls-17, .cls-18, .cls-19, .cls-20, .cls-21, .cls-22, .cls-23, .cls-24, .cls-25, .cls-26, .cls-27, .cls-28, .cls-29, .cls-30, .cls-31, .cls-32, .cls-33, .cls-34, .cls-35, .cls-36, .cls-37, .cls-38, .cls-39, .cls-40, .cls-41, .cls-42, .cls-43, .cls-44, .cls-45, .cls-46 {
        stroke: #000;
        stroke-miterlimit: 10;
        stroke-width: .5px;
      }

      .cls-2 {
        fill: url(#linear-gradient-4);
      }

      .cls-3 {
        fill: url(#linear-gradient-5);
      }

      .cls-4 {
        fill: url(#linear-gradient-6);
      }

      .cls-5 {
        fill: url(#linear-gradient-7);
      }

      .cls-6 {
        fill: url(#linear-gradient-9);
      }

      .cls-7 {
        fill: url(#linear-gradient-8);
      }

      .cls-8 {
        fill: url(#linear-gradient-3);
      }

      .cls-9 {
        fill: url(#linear-gradient);
      }

      .cls-10 {
        fill: #ccc;
      }

      .cls-11 {
        fill: url(#linear-gradient-41);
      }

      .cls-12 {
        fill: url(#linear-gradient-40);
      }

      .cls-13 {
        fill: url(#linear-gradient-42);
      }

      .cls-14 {
        fill: url(#linear-gradient-43);
      }

      .cls-15 {
        fill: url(#linear-gradient-14);
      }

      .cls-16 {
        fill: url(#linear-gradient-23);
      }

      .cls-17 {
        fill: url(#linear-gradient-18);
      }

      .cls-18 {
        fill: url(#linear-gradient-22);
      }

      .cls-19 {
        fill: url(#linear-gradient-20);
      }

      .cls-20 {
        fill: url(#linear-gradient-12);
      }

      .cls-21 {
        fill: url(#linear-gradient-11);
      }

      .cls-22 {
        fill: url(#linear-gradient-10);
      }

      .cls-23 {
        fill: url(#linear-gradient-17);
      }

      .cls-24 {
        fill: url(#linear-gradient-13);
      }

      .cls-25 {
        fill: url(#linear-gradient-16);
      }

      .cls-26 {
        fill: url(#linear-gradient-19);
      }

      .cls-27 {
        fill: url(#linear-gradient-15);
      }

      .cls-28 {
        fill: url(#linear-gradient-21);
      }

      .cls-29 {
        fill: url(#linear-gradient-27);
      }

      .cls-30 {
        fill: url(#linear-gradient-26);
      }

      .cls-31 {
        fill: url(#linear-gradient-24);
      }

      .cls-32 {
        fill: url(#linear-gradient-38);
      }

      .cls-33 {
        fill: url(#linear-gradient-25);
      }

      .cls-34 {
        fill: url(#linear-gradient-28);
      }

      .cls-35 {
        fill: url(#linear-gradient-29);
      }

      .cls-36 {
        fill: url(#linear-gradient-36);
      }

      .cls-37 {
        fill: url(#linear-gradient-39);
      }

      .cls-38 {
        fill: url(#linear-gradient-34);
      }

      .cls-39 {
        fill: url(#linear-gradient-37);
      }

      .cls-40 {
        fill: url(#linear-gradient-35);
      }

      .cls-41 {
        fill: url(#linear-gradient-30);
      }

      .cls-42 {
        fill: url(#linear-gradient-32);
      }

      .cls-43 {
        fill: url(#linear-gradient-33);
      }

      .cls-44 {
        fill: url(#linear-gradient-31);
      }

      .cls-45 {
        fill: url(#Blue_Gradient_Top_Down_copy-2);
      }

      .cls-46 {
        fill: url(#Blue_Gradient_Top_Down_copy);
      }
    </style>
    <linearGradient id="Blue_Gradient_Top_Down_copy" data-name="Blue Gradient Top Down copy" x1="266.15" y1="177.25" x2="266.15" y2="112.25" gradientTransform="translate(490.68) rotate(-180) scale(.87 -1)" gradientUnits="userSpaceOnUse">
      <stop offset="0" stop-color="#cce0f4"/>
      <stop offset=".06" stop-color="#c2dcf2"/>
      <stop offset=".17" stop-color="#a9d2ee"/>
      <stop offset=".31" stop-color="#7fc2e7"/>
      <stop offset=".46" stop-color="#46abdd"/>
      <stop offset=".57" stop-color="#1e9cd7"/>
      <stop offset=".87" stop-color="#0075be"/>
      <stop offset=".99" stop-color="#005b97"/>
    </linearGradient>
    <linearGradient id="Blue_Gradient_Top_Down_copy-2" data-name="Blue Gradient Top Down copy" x1="189.88" y1="177.54" x2="189.88" y2="113.25" gradientTransform="matrix(1, 0, 0, 1, 0, 0)" xlink:href="#Blue_Gradient_Top_Down_copy"/>
    <linearGradient id="linear-gradient" x1="754.76" y1="619.25" x2="754.76" y2="765.25" gradientTransform="translate(1585.77) rotate(-180) scale(1.07 -1)" gradientUnits="userSpaceOnUse">
      <stop offset=".48" stop-color="#00bdff"/>
      <stop offset="1" stop-color="#0080c8"/>
    </linearGradient>
    <linearGradient id="linear-gradient-2" x1="665.52" y1="622.25" x2="665.52" y2="765.25" gradientTransform="matrix(1, 0, 0, 1, 0, 0)" xlink:href="#linear-gradient"/>
    <linearGradient id="linear-gradient-3" x1="768.93" y1="493.25" x2="768.93" y2="696.25" gradientTransform="matrix(1, 0, 0, 1, 0, 0)" xlink:href="#linear-gradient"/>
    <linearGradient id="linear-gradient-4" x1="674.52" y1="494.25" x2="674.52" y2="697.25" gradientTransform="matrix(1, 0, 0, 1, 0, 0)" xlink:href="#linear-gradient"/>
    <linearGradient id="linear-gradient-5" x1="721.75" y1="291.25" x2="721.75" y2="455.25" gradientTransform="matrix(1, 0, 0, 1, 0, 0)" xlink:href="#linear-gradient"/>
    <linearGradient id="linear-gradient-6" x1="675.52" y1="391.25" x2="675.52" y2="539.54" gradientTransform="matrix(1, 0, 0, 1, 0, 0)" xlink:href="#linear-gradient"/>
    <linearGradient id="linear-gradient-7" x1="768.02" y1="391.25" x2="768.02" y2="539.54" gradientTransform="matrix(1, 0, 0, 1, 0, 0)" xlink:href="#linear-gradient"/>
    <linearGradient id="linear-gradient-8" x1="669.33" y1="188.25" x2="669.33" y2="380.25" gradientTransform="matrix(1, 0, 0, 1, 0, 0)" xlink:href="#linear-gradient"/>
    <linearGradient id="linear-gradient-9" x1="775.02" y1="188.25" x2="775.02" y2="380.25" gradientTransform="matrix(1, 0, 0, 1, 0, 0)" xlink:href="#linear-gradient"/>
    <linearGradient id="linear-gradient-10" x1="675.77" y1="96.25" x2="675.77" y2="309.25" gradientTransform="matrix(1, 0, 0, 1, 0, 0)" xlink:href="#linear-gradient"/>
    <linearGradient id="linear-gradient-11" x1="768.02" y1="96.25" x2="768.02" y2="309.25" gradientTransform="matrix(1, 0, 0, 1, 0, 0)" xlink:href="#linear-gradient"/>
    <linearGradient id="linear-gradient-12" x1="828.27" y1="222.25" x2="828.27" y2="341.25" gradientTransform="matrix(1, 0, 0, 1, 0, 0)" xlink:href="#linear-gradient"/>
    <linearGradient id="linear-gradient-13" x1="615.36" y1="222.25" x2="615.36" y2="341.25" gradientTransform="matrix(1, 0, 0, 1, 0, 0)" xlink:href="#linear-gradient"/>
    <linearGradient id="linear-gradient-14" x1="810.27" y1="164.36" x2="810.27" y2="229.25" gradientTransform="matrix(1, 0, 0, 1, 0, 0)" xlink:href="#linear-gradient"/>
    <linearGradient id="linear-gradient-15" x1="633.02" y1="164.36" x2="633.02" y2="229.25" gradientTransform="matrix(1, 0, 0, 1, 0, 0)" xlink:href="#linear-gradient"/>
    <linearGradient id="linear-gradient-16" x1="171.77" y1="406.25" x2="171.77" y2="661.25" gradientTransform="matrix(1, 0, 0, 1, 0, 0)" xlink:href="#linear-gradient"/>
    <linearGradient id="linear-gradient-17" x1="277.02" y1="404.25" x2="277.02" y2="659.25" gradientTransform="matrix(1, 0, 0, 1, 0, 0)" xlink:href="#linear-gradient"/>
    <linearGradient id="linear-gradient-18" x1="93.32" y1="294.25" x2="93.32" y2="397.25" gradientTransform="matrix(1, 0, 0, 1, 0, 0)" xlink:href="#linear-gradient"/>
    <linearGradient id="linear-gradient-19" x1="355.52" y1="294.25" x2="355.52" y2="397.25" gradientTransform="matrix(1, 0, 0, 1, 0, 0)" xlink:href="#linear-gradient"/>
    <linearGradient id="linear-gradient-20" x1="336.27" y1="222.25" x2="336.27" y2="348.25" gradientTransform="matrix(1, 0, 0, 1, 0, 0)" xlink:href="#linear-gradient"/>
    <linearGradient id="linear-gradient-21" x1="113.02" y1="222.25" x2="113.02" y2="348.25" gradientTransform="matrix(1, 0, 0, 1, 0, 0)" xlink:href="#linear-gradient"/>
    <linearGradient id="linear-gradient-22" x1="281.52" y1="355.75" x2="281.52" y2="438.75" gradientTransform="matrix(1, 0, 0, 1, 0, 0)" xlink:href="#linear-gradient"/>
    <linearGradient id="linear-gradient-23" x1="283.46" y1="267.25" x2="283.46" y2="291.25" gradientTransform="matrix(1, 0, 0, 1, 0, 0)" xlink:href="#linear-gradient"/>
    <linearGradient id="linear-gradient-24" x1="284.96" y1="303.25" x2="284.96" y2="341.25" gradientTransform="matrix(1, 0, 0, 1, 0, 0)" xlink:href="#linear-gradient"/>
    <linearGradient id="linear-gradient-25" x1="282.99" y1="334.25" x2="282.99" y2="367.25" gradientTransform="matrix(1, 0, 0, 1, 0, 0)" xlink:href="#linear-gradient"/>
    <linearGradient id="linear-gradient-26" x1="284.7" y1="289.75" x2="284.7" y2="316.25" gradientTransform="matrix(1, 0, 0, 1, 0, 0)" xlink:href="#linear-gradient"/>
    <linearGradient id="linear-gradient-27" x1="168.02" y1="355.75" x2="168.02" y2="438.75" gradientTransform="matrix(1, 0, 0, 1, 0, 0)" xlink:href="#linear-gradient"/>
    <linearGradient id="linear-gradient-28" x1="166.04" y1="267.25" x2="166.04" y2="291.25" gradientTransform="matrix(1, 0, 0, 1, 0, 0)" xlink:href="#linear-gradient"/>
    <linearGradient id="linear-gradient-29" x1="164.52" y1="303.25" x2="164.52" y2="341.25" gradientTransform="matrix(1, 0, 0, 1, 0, 0)" xlink:href="#linear-gradient"/>
    <linearGradient id="linear-gradient-30" x1="166.52" y1="334.25" x2="166.52" y2="367.25" gradientTransform="matrix(1, 0, 0, 1, 0, 0)" xlink:href="#linear-gradient"/>
    <linearGradient id="linear-gradient-31" x1="164.78" y1="289.75" x2="164.78" y2="316.25" gradientTransform="matrix(1, 0, 0, 1, 0, 0)" xlink:href="#linear-gradient"/>
    <linearGradient id="linear-gradient-32" x1="142.02" y1="168.25" x2="142.02" y2="236.94" gradientTransform="matrix(1, 0, 0, 1, 0, 0)" xlink:href="#linear-gradient"/>
    <linearGradient id="linear-gradient-33" x1="308.02" y1="167.25" x2="308.02" y2="237.25" gradientTransform="matrix(1, 0, 0, 1, 0, 0)" xlink:href="#linear-gradient"/>
    <linearGradient id="linear-gradient-34" x1="204.13" y1="325.75" x2="204.13" y2="365.75" gradientTransform="matrix(1, 0, 0, 1, 0, 0)" xlink:href="#linear-gradient"/>
    <linearGradient id="linear-gradient-35" x1="205.54" y1="364.75" x2="205.54" y2="478.25" gradientTransform="matrix(1, 0, 0, 1, 0, 0)" xlink:href="#linear-gradient"/>
    <linearGradient id="linear-gradient-36" x1="206.58" y1="255.69" x2="206.58" y2="286.39" gradientTransform="matrix(1, 0, 0, 1, 0, 0)" xlink:href="#linear-gradient"/>
    <linearGradient id="linear-gradient-37" x1="205.02" y1="286.39" x2="205.02" y2="328.25" gradientTransform="matrix(1, 0, 0, 1, 0, 0)" xlink:href="#linear-gradient"/>
    <linearGradient id="linear-gradient-38" x1="245.12" y1="325.75" x2="245.12" y2="365.75" gradientTransform="matrix(1, 0, 0, 1, 0, 0)" xlink:href="#linear-gradient"/>
    <linearGradient id="linear-gradient-39" x1="243.77" y1="364.75" x2="243.77" y2="478.25" gradientTransform="matrix(1, 0, 0, 1, 0, 0)" xlink:href="#linear-gradient"/>
    <linearGradient id="linear-gradient-40" x1="242.77" y1="255.69" x2="242.77" y2="286.39" gradientTransform="matrix(1, 0, 0, 1, 0, 0)" xlink:href="#linear-gradient"/>
    <linearGradient id="linear-gradient-41" x1="244.27" y1="286.39" x2="244.27" y2="328.25" gradientTransform="matrix(1, 0, 0, 1, 0, 0)" xlink:href="#linear-gradient"/>
    <linearGradient id="linear-gradient-42" x1="179.54" y1="175.75" x2="179.54" y2="262.25" gradientTransform="matrix(1, 0, 0, 1, 0, 0)" xlink:href="#linear-gradient"/>
    <linearGradient id="linear-gradient-43" x1="270.27" y1="175.78" x2="270.27" y2="262.25" gradientTransform="matrix(1, 0, 0, 1, 0, 0)" xlink:href="#linear-gradient"/>
  </defs>
  <g id="Body">
    <path class="cls-10" d="M793.52,888.25l11,14v10.16h-46.59l-7.41-7.16v-8.98l5-18.02,2-18-3-8,2-11,1-18-3-38-6-33v-25.94l2-27.06,2-15-4-22.18-10-51.82-7-44-3-31v-26.67l-4-20.33h-7.43v34.82l-6.57,48.18-6,42-6,46-5,25v14.39l4,29.61-2,24-6,30-3,30v26.05l2,10.95-2,14.08,7,33.92-3.44,15.16-45.56,1.84-7-10,12-16,4-23-1-7,1-9-11-76-6-34s0-32.39,0-33.7,0-18.78,0-18.78v-56.33l-5-45.2-3-43v-35.65l4-39.35,5-35,3-31,3-37,5-14-2-28-2-21-4-19-14,25-10,41-7,16-38,87v8.91l-6,34.09-6,34-4-2v-27.55l-12,38.55-5-2,6-36-3-1-14,40-5-3,8-39-3-3-17,34-5-4,17-36,3-12-10,5-9,10h-9l19-24,23-21,15-73,11-47,17-35,12-51,1-22,12-32,12-16,15-6,18-2,36-23,2-13,1-16-5-10-4-16-5-3-6-14v-9l5-3,1-21,7-17,14-11,20-5,20,3,17,10,6,15,2,22,6,7-3,21-7,8-8,23,2,16,2,11,33,24,16,1.8,20,9.2,12,18,11,25v23.24l12,49.76,15,33,7,22,8,36,13,66,11,7,11,14,21,26s-4,2-6,1-7-5-7-5l-16-14,4,14,16,37-4,3-18-33,4,39-4,1-13-36,3,35h-6l-11-36v27l-5-1-4-28-6-28v-13l-22-50-15-34-11-27-5-25-5-14-12-24-4,29-3,42s3,8,3,9,2,43,2,43l9,52,4,49,1,46-8,77,1,35-2,25,1,40-4,27-10,63-4,32,1,7-1,9,5,23Z"/>
    <path class="cls-10" d="M296.52,888.25l11,14v10.16h-46.59l-7.41-7.16v-8.98l5-18.02,2-18-3-8,2-11,1-18-3-38-6-33v-25.94l2-27.06,2-15-4-22.18-10-51.82-7-44-3-31v-26.67l-4-20.33h-7.43v34.82l-6.57,48.18-6,42-6,46-5,25v14.39l4,29.61-2,24-6,30-3,30v26.05l2,10.95-2,14.08,7,33.92-3.44,15.16-45.56,1.84-7-10,12-16,4-23-1-7,1-9-11-76-6-34s0-32.39,0-33.7,0-18.78,0-18.78v-56.33l-5-45.2-3-43v-35.65l4-39.35,5-35,3-31,3-37,5-14-2-28-2-21-4-19-14,25-10,41-7,16-38,87v8.91l-6,34.09-6,34-4-2v-27.55l-12,38.55-5-2,6-36-3-1-14,40-5-3,8-39-3-3-17,34-5-4,17-36,3-12-10,5-9,10H.52l19-24,23-21,15-73,11-47,17-35,12-51,1-22,12-32,12-16,15-6,18-2,36-23,2-13,1-16-5-10-4-16-5-3-6-14v-9l5-3,1-21,7-17,14-11L221.52,.25l20,3,17,10,6,15,2,22,6,7-3,21-7,8-8,23,2,16,2,11,33,24,16,1.8,20,9.2,12,18,11,25v23.24l12,49.76,15,33,7,22,8,36,13,66,11,7,11,14,21,26s-4,2-6,1-7-5-7-5l-16-14,4,14,16,37-4,3-18-33,4,39-4,1-13-36,3,35h-6l-11-36v27l-5-1-4-28-6-28v-13l-22-50-15-34-11-27-5-25-5-14-12-24-4,29-3,42s3,8,3,9,2,43,2,43l9,52,4,49,1,46-8,77,1,35-2,25,1,40-4,27-10,63-4,32,1,7-1,9,5,23Z"/>
  </g>
  <g id="Neck">
    <polygon class="cls-46" points="253.52 112.25 241.52 125.25 236.5 139.97 233.64 153.97 233.64 166.96 228.18 177.25 233.69 177.25 237.45 170.97 289.52 162.25 257.47 137.97 253.52 112.25"/>
    <polygon class="cls-45" points="196.52 113.25 208.52 125.25 213.52 140.25 216.52 154.25 216.52 167.25 222.25 177.54 216.46 177.54 212.52 171.25 157.52 162.25 191.52 138.25 196.52 113.25"/>
  </g>
  <g id="Calves">
    <polygon class="cls-9" points="781.52 619.25 803.52 705.67 805.52 725.25 800.74 744.25 789.54 762.25 781.71 759.25 772.96 742.12 761.52 765.25 754.83 759.25 750.52 726.25 756.52 685.25 761.52 666.25 781.52 619.25"/>
    <polygon class="cls-1" points="661.52 622.25 641.52 705.25 638.52 725.25 644.52 744.25 655.52 763.25 661.52 759.25 669.33 742.12 681.52 765.25 688.52 754.25 692.52 727.25 687.52 690.25 681.52 667.25 661.52 622.25"/>
  </g>
  <g id="Hamstrings">
    <polygon class="cls-8" points="734.84 493.25 750.88 502.25 774.94 512.25 794.99 528.25 803.01 549.25 804.52 585.25 804.52 632.25 805.02 656.25 803.01 696.25 795.99 667.25 788.98 637.25 781.96 611.25 769.93 641.32 758.9 665.25 754.89 683.25 749.88 657.25 741.86 621.25 737.85 591.25 735.84 570.25 733.84 540.25 732.84 511.25 734.84 493.25"/>
    <polygon class="cls-2" points="708.52 494.25 692.52 503.25 668.52 513.25 648.52 529.25 640.52 550.25 638.52 585.25 638.52 632.25 638.52 657.25 640.52 697.25 647.52 668.25 654.52 638.25 661.52 612.25 673.52 642.32 684.52 666.25 688.52 684.25 693.52 658.25 701.52 622.25 705.52 592.25 707.52 571.25 709.52 541.25 710.52 512.25 708.52 494.25"/>
  </g>
  <g id="Lower_Back" data-name="Lower Back">
    <polygon class="cls-3" points="721.42 291.25 715.52 310.29 688.15 341.25 678.6 380.25 689.52 388.25 704.62 406.25 715.52 432.82 721.52 455.25 726.52 431.25 738.88 406.25 755.52 386.25 764.9 380.25 755.52 339.25 728.52 309.25 721.42 291.25"/>
  </g>
  <g id="Glutes">
    <polygon class="cls-4" points="682.69 391.25 660.94 399.25 649.08 410.25 643.15 421.25 635.24 454.56 632.52 482.89 632.52 502.65 641.17 539.54 646.11 526.25 666.38 509.9 690.6 501.25 707.52 491.25 718.52 468.25 713.35 438.75 701.48 412.25 690.72 397.25 682.69 391.25"/>
    <polygon class="cls-5" points="760.77 391.25 782.77 399.25 794.77 410.25 800.77 421.25 808.77 454.56 811.52 482.89 811.52 502.65 802.77 539.54 797.77 526.25 777.27 509.9 752.77 501.25 733.52 487.25 724.52 470.25 729.77 438.75 741.77 412.25 752.65 397.25 760.77 391.25"/>
  </g>
  <g id="Middle_Back" data-name="Middle Back">
    <polygon class="cls-7" points="659.7 188.25 642.48 197.25 635.39 207.25 630.83 219.25 635.89 235.84 645.52 249.25 645.52 261.87 643.49 280.25 649.06 315.25 662.23 354.25 674.9 380.25 680.98 355.25 683.51 339.25 695.67 324.25 707.83 311.25 703.76 294.25 682.5 259.25 659.7 188.25"/>
    <polygon class="cls-6" points="784.52 188.25 801.52 197.25 808.52 207.25 813.02 219.25 808.02 235.84 798.52 249.25 798.52 261.87 800.52 280.25 795.02 315.25 782.02 354.25 769.52 380.25 763.52 355.25 761.02 339.25 749.02 324.25 737.02 311.25 741.03 294.25 762.02 259.25 784.52 188.25"/>
  </g>
  <g id="Upper_Back" data-name="Upper Back">
    <polygon class="cls-22" points="709.48 309.25 705.75 294.25 685.33 259.25 673.04 219 663.19 190.25 674.26 179.25 651.11 173.25 636.02 162.25 655.81 162.25 693.38 134.25 698.41 104.25 710.49 96.25 712.5 134.25 704.45 153.25 702.43 170.25 705.45 183.25 708.47 249.25 715.52 274.25 715.52 291.25 709.48 309.25"/>
    <polygon class="cls-21" points="734.52 309.25 738.22 294.25 758.52 259.25 770.72 219 780.52 190.25 769.52 179.25 792.52 173.25 807.52 162.25 787.85 162.25 750.52 134.25 745.52 104.25 733.52 96.25 731.52 134.25 739.52 153.25 741.52 170.25 738.52 183.25 735.52 249.25 728.52 274.25 728.52 291.25 734.52 309.25"/>
  </g>
  <g id="Triceps">
    <polygon class="cls-20" points="815.39 222.25 820.09 226.25 844.15 231.89 850.39 255.69 855.02 285.25 844.15 303.25 837.51 325.75 833.12 338.25 825.96 341.25 824.96 325.75 815.39 301.72 803.17 279.25 801.52 262.25 801.52 250.01 810.56 236.94 815.39 222.25"/>
    <polygon class="cls-24" points="628.2 222.25 623.52 226.25 599.52 231.89 593.29 255.69 588.68 285.25 599.52 303.25 606.13 325.75 610.52 338.25 617.66 341.25 618.65 325.75 628.2 301.72 640.39 279.25 642.04 262.25 642.04 250.01 633.02 236.94 628.2 222.25"/>
  </g>
  <g id="Rear_Delt" data-name="Rear Delt">
    <polygon class="cls-15" points="776.02 181.25 785.22 185.25 803.62 195.25 810.78 206.25 815.86 219.02 822.02 224.25 844.52 229.25 844.52 211.47 838.38 189.25 826.11 172.25 810.27 164.36 794.98 175.75 776.02 181.25"/>
    <polygon class="cls-27" points="666.52 181.25 657.52 185.25 639.52 195.25 632.52 206.25 627.55 219.02 621.52 224.25 599.52 229.25 599.52 211.47 605.52 189.25 617.52 172.25 633.02 164.36 647.97 175.75 666.52 181.25"/>
  </g>
  <g id="Quads">
    <polygon class="cls-25" points="143.72 406.25 163.83 421.25 183.94 449.25 200.87 476.25 210.4 519.25 211.46 541.25 212.52 579.25 208.28 612.25 199.82 661.25 188.17 661.25 174.41 648.25 158.54 624.25 139.48 575.25 131.02 515.25 132.08 468.25 138.43 428.25 143.72 406.25"/>
    <polygon class="cls-23" points="303.52 404.25 284.52 419.25 265.52 447.25 249.52 474.25 240.52 517.25 239.52 539.25 238.52 577.25 242.52 610.25 250.52 659.25 261.52 659.25 274.52 646.25 289.52 622.25 307.52 573.25 315.52 513.25 314.52 466.25 308.52 426.25 303.52 404.25"/>
  </g>
  <g id="Forearms">
    <polygon class="cls-17" points="85.15 294.25 85.15 331.92 80.04 353.25 106.59 336.25 116.92 322.25 127.02 313.25 116.47 353.25 109.66 369.25 99.44 382.25 88.21 389.25 76.98 394.25 67.35 397.25 62.68 385.25 59.61 362.25 68.47 328.25 77.22 307.32 85.15 294.25"/>
    <polygon class="cls-26" points="363.52 294.25 363.52 331.92 368.52 353.25 342.52 336.25 332.41 322.25 322.52 313.25 332.85 353.25 339.52 369.25 349.52 382.25 360.52 389.25 371.52 394.25 380.94 397.25 385.52 385.25 388.52 362.25 379.84 328.25 371.28 307.32 363.52 294.25"/>
  </g>
  <g id="Biceps">
    <polygon class="cls-19" points="311.42 223.25 316.29 222.25 321.16 226.25 334.8 232.25 346.5 239.91 353.32 261.25 359.17 284.25 361.12 294.25 361.12 333.01 365.02 348.25 353.32 340.25 345.03 334.25 335.82 322.25 323.11 311.25 307.52 280.25 310.44 257.25 311.42 232.25 311.42 223.25"/>
    <polygon class="cls-28" points="138.52 223.25 133.52 222.25 128.52 226.25 114.52 232.25 102.52 239.91 95.52 261.25 89.52 284.25 87.52 294.25 87.52 333.01 83.52 348.25 95.52 340.25 104.03 334.25 113.47 322.25 126.52 311.25 142.52 280.25 139.52 257.25 138.52 232.25 138.52 223.25"/>
  </g>
  <g id="Side_Abs" data-name="Side Abs">
    <polygon class="cls-18" points="263.02 438.75 270.59 431.73 282.94 413.66 292.43 404.01 300.02 391.04 300.02 381.81 298.12 360.58 296.22 355.75 272.5 375.05 266.81 408.83 267.27 420.65 263.02 438.75"/>
    <polygon class="cls-16" points="289.87 283.25 296.71 271.04 289.87 273.25 281.52 269.27 274.14 267.25 270.21 269.25 270.21 280.25 273.16 291.25 281.52 290.35 289.87 283.25"/>
    <polygon class="cls-31" points="296.75 318.25 298.72 303.25 286.92 313.25 275.13 320.25 271.2 329.06 274.14 341.25 284.96 337.25 294.79 331.53 296.75 318.25"/>
    <polygon class="cls-33" points="294.79 353.43 293.8 344.25 294.79 334.25 283.97 341.25 272.18 345.25 271.2 356.25 275.13 367.25 282.99 363.97 294.79 353.43"/>
    <polygon class="cls-30" points="296.28 301.53 298.21 297.46 292.74 294.66 287.6 289.75 281.33 293.74 274.09 294.66 271.2 302.63 272.64 312.49 276.02 316.25 287.6 309.38 296.28 301.53"/>
    <polygon class="cls-29" points="186.84 438.75 179.14 431.73 166.57 413.66 156.92 404.01 149.2 391.04 149.2 381.81 151.13 360.58 153.06 355.75 177.19 375.05 182.98 408.83 182.51 420.65 186.84 438.75"/>
    <polygon class="cls-34" points="159.52 283.25 152.56 271.04 159.52 273.25 168.02 269.27 175.52 267.25 179.52 269.25 179.52 280.25 176.52 291.25 168.02 290.35 159.52 283.25"/>
    <polygon class="cls-35" points="152.52 318.25 150.52 303.25 162.52 313.25 174.52 320.25 178.52 329.06 175.52 341.25 164.52 337.25 154.52 331.53 152.52 318.25"/>
    <polygon class="cls-41" points="154.52 353.43 155.52 344.25 154.52 334.25 165.52 341.25 177.52 345.25 178.52 356.25 174.52 367.25 166.52 363.97 154.52 353.43"/>
    <polygon class="cls-44" points="153 301.53 151.04 297.46 156.6 294.66 161.83 289.75 168.21 293.74 175.58 294.66 178.52 302.63 177.05 312.49 173.61 316.25 161.83 309.38 153 301.53"/>
  </g>
  <g id="Delts">
    <polygon class="cls-42" points="137.22 168.25 122.78 175.61 110.52 191.25 102.52 217.25 103.52 236.94 113.52 230.25 126.52 225.25 134.33 216.99 147.52 198.25 181.52 174.69 137.22 168.25"/>
    <polygon class="cls-43" points="312.33 167.25 326.12 174.61 335.32 185.64 346.52 216.25 347.52 237.25 336.52 229.25 327.01 225.62 315.52 219.25 301.52 198.25 268.52 173.25 312.33 167.25"/>
  </g>
  <g id="Abs">
    <polygon class="cls-38" points="186.02 337.18 186.02 348.98 189.93 361.94 197.77 363.85 210.49 365.75 220.15 365.75 221.76 356.51 222.25 342.89 222.25 333.3 213.43 327.65 199.73 325.75 188.95 326.7 186.02 337.18"/>
    <polygon class="cls-40" points="189.11 364.75 187.06 378.74 189.11 396.78 196.3 419.51 208.62 459.33 215.8 474.27 224.02 478.25 224.02 416.78 222.99 393.62 221.76 367.75 209.64 368.73 189.11 364.75"/>
    <path class="cls-36" d="M221.05,273.27l1.93-6.47-1.93-9.4-6.76-1.71-10.61,4.63-11.58,3.7s-1.93,1.86-1.93,2.78v14.86l1.93,3.67,10.61-1.85h10.62l7.71,2.91v-13.12Z"/>
    <polygon class="cls-39" points="222.46 314.07 222.98 300.24 221.79 288.25 213.39 286.39 199.68 286.39 192.26 288.25 188.1 297.25 187.06 313.25 188.1 323.25 200.35 323.25 214.13 325.25 220.37 328.25 222.46 314.07"/>
    <polygon class="cls-32" points="262.52 337.18 262.52 348.98 258.76 361.94 251.23 363.85 239.01 365.75 229.73 365.75 228.19 356.51 227.72 342.89 227.72 333.3 236.19 327.65 249.35 325.75 259.7 326.7 262.52 337.18"/>
    <polygon class="cls-37" points="259.55 364.75 261.52 378.74 259.55 396.78 252.64 419.51 240.81 459.33 233.91 474.27 226.02 478.25 226.02 416.78 227.01 393.62 228.19 367.75 239.83 368.73 259.55 364.75"/>
    <path class="cls-12" d="M228.87,273.27l-1.85-6.47,1.85-9.4,6.49-1.71,10.19,4.63,11.12,3.7s1.85,1.86,1.85,2.78v14.86l-1.85,3.67-10.19-1.85h-10.2l-7.41,2.91v-13.12Z"/>
    <polygon class="cls-11" points="227.52 314.07 227.02 300.24 228.16 288.25 236.23 286.39 249.4 286.39 256.52 288.25 260.52 297.25 261.52 313.25 260.52 323.25 248.75 323.25 235.52 325.25 229.52 328.25 227.52 314.07"/>
  </g>
  <g id="Chest">
    <polygon class="cls-13" points="183.54 175.75 148.55 201.02 135.56 220.46 141.56 222.41 148.55 245.73 154.55 249.62 163.55 257.4 177.54 262.25 190.53 261.28 208.52 256.42 216.52 252.54 223.52 245.73 223.52 237.69 220.52 210.74 217.52 198.11 210.52 185.47 200.53 178.67 183.54 175.75"/>
    <polygon class="cls-14" points="266.38 175.78 300.39 201.04 313.02 220.48 307.19 222.42 300.39 245.74 294.56 249.62 285.81 257.4 272.21 262.25 259.58 261.28 242.09 256.43 234.32 252.54 227.52 245.74 227.52 237.7 230.43 210.76 233.35 198.13 240.15 185.5 249.86 178.7 266.38 175.78"/>
  </g>
</svg>